<svg width="222" height="65" fill="none" xmlns="http://www.w3.org/2000/svg"><path d="M87.502 55.274a4.448 4.448 0 0 0-2.283-.657 4.231 4.231 0 0 0-3.09 1.315 4.315 4.315 0 0 0-.716 5.259c.379.664.92 1.221 1.575 1.617.654.4 1.406.61 2.172.611h.111a4.344 4.344 0 0 0 2.33-.69l.078-.053v-1.275l-.564.388c-.555.39-1.218.6-1.896.598a3.185 3.185 0 0 1-2.343-.986 3.341 3.341 0 0 1 0-4.727 3.214 3.214 0 0 1 2.343-.986 3.32 3.32 0 0 1 1.896.605l.564.388v-1.183l-.091-.158-.086-.066Zm5.125.552h1.791v7.455h1.063v-7.455h1.765v-1.025h-4.62v1.025Zm12.9 4.024-2.474-5.05h-1.181l3.11 6.174-1.096 2.307h1.122l4.023-8.48h-1.122l-2.382 5.048Zm11.613-5.693-3.936 8.099h-.722v2.03h1.023v-1.005h7.172v1.006h1.043v-2.031h-.656l-3.924-8.1Zm-2.828 8.099 2.796-5.726 2.821 5.726h-5.617Zm13.944-.941v-6.514h-1.063v8.48h.859l4.856-6.534v6.534h1.069V54.8h-.886l-4.835 6.514Zm12.145-5.673a2.702 2.702 0 0 0-.879 1.999 2.701 2.701 0 0 0 .879 1.998c.364.36.817.616 1.312.743l-2.749 2.899h.394l1.037-.053 1.771-1.86v1.913h1.057V54.8h-.801a2.814 2.814 0 0 0-2.021.841Zm.722 3.287a1.756 1.756 0 0 1 0-2.537 1.83 1.83 0 0 1 1.023-.533v3.596a1.718 1.718 0 0 1-1.036-.546l.013.02Zm20.898-4.772-3.937 8.099h-.702v2.03h1.024v-1.005h7.171v1.006h1.044v-2.031h-.656l-3.944-8.1Zm-.033 2.373 2.822 5.726h-5.617l2.795-5.726Zm10.085 6.75h3.504v-1.025h-2.441V60.35h2.034v-1.032h-2.034v-3.49h2.441V54.8h-3.504v8.48Zm14.213-8.48h-.985l-.636.086-2.671 2.32v-2.405h-1.056v8.48h1.07v-3.773l3.681 3.773h1.384l-4.77-5.003 3.983-3.477Zm9.087-.144a4.264 4.264 0 0 0-3.11 1.315 4.206 4.206 0 0 0-1.312 3.064 4.314 4.314 0 0 0 1.279 3.083 4.099 4.099 0 0 0 3.032 1.314h.151a4.113 4.113 0 0 0 3.051-1.315 4.314 4.314 0 0 0 1.266-3.082 4.383 4.383 0 0 0-1.291-3.082 4.369 4.369 0 0 0-3.085-1.27l.019-.027Zm3.281 4.372a3.299 3.299 0 0 1-.978 2.366 3.157 3.157 0 0 1-2.342.986 3.211 3.211 0 0 1-2.343-.986 3.343 3.343 0 0 1 0-4.726 3.287 3.287 0 0 1 2.346-.989 3.28 3.28 0 0 1 2.346.989 3.297 3.297 0 0 1 .997 2.36h-.026Zm7.414-4.228h-.702v8.48h1.063v-2.832a2.895 2.895 0 0 0 1.686-.809 2.62 2.62 0 0 0 .899-1.972 2.707 2.707 0 0 0-.866-2.005 2.876 2.876 0 0 0-2.08-.861Zm.361 4.602V55.84c.37.078.704.274.952.56a1.753 1.753 0 0 1 0 2.537 1.688 1.688 0 0 1-.945.48l-.007-.014Zm10.63-5.252-4.429 9.131h1.128l1.444-2.958h3.688l1.463 2.958h1.174l-4.468-9.131Zm-1.378 5.147 1.352-2.78 1.364 2.78h-2.716ZM80.744 40.339h1.627V9.337h17.21v31.002h1.635V7.877H80.744V40.34Zm35.537-20.037a10.024 10.024 0 0 0-7.323 3.024 9.776 9.776 0 0 0-3.038 7.145 10.088 10.088 0 0 0 3.019 7.231 9.585 9.585 0 0 0 7.093 3.11h.426a9.571 9.571 0 0 0 7.159-3.083 10.187 10.187 0 0 0 2.946-7.231 9.822 9.822 0 0 0-3.012-7.166 9.971 9.971 0 0 0-7.27-3.03Zm8.713 10.275a8.642 8.642 0 0 1-2.545 6.205 8.3 8.3 0 0 1-6.129 2.63 8.905 8.905 0 0 1-6.181-2.605 8.937 8.937 0 0 1-2.618-6.184 8.644 8.644 0 0 1 2.625-6.226 8.404 8.404 0 0 1 6.168-2.63 8.274 8.274 0 0 1 6.122 2.63 8.633 8.633 0 0 1 2.558 6.18Zm14.738-10.499-9.035 18.933h-1.542v3.78h1.312v-2.452h18.326v2.452h1.411v-3.826h-1.457l-9.015-18.887Zm7.283 18.887h-14.796l7.388-15.435 7.408 15.435Zm39.369-18.663c-2.72 0-5.33 1.079-7.259 3a10.325 10.325 0 0 0-3.036 7.255c-.011.367.007.734.052 1.098h-4.691v-10.88h-1.588V40.34h1.588v-7.231h4.921a11.657 11.657 0 0 0 3.727 5.436 9.38 9.38 0 0 0 6.135 2.3h.348a9.63 9.63 0 0 0 7.158-3.108 10.133 10.133 0 0 0 2.992-7.232 9.763 9.763 0 0 0-3.038-7.145 10.038 10.038 0 0 0-7.309-3.057Zm8.759 10.275a8.554 8.554 0 0 1-2.585 6.205 8.525 8.525 0 0 1-6.148 2.623 8.52 8.52 0 0 1-6.148-2.623 8.733 8.733 0 0 1-2.592-6.212 8.732 8.732 0 0 1 2.592-6.212 8.486 8.486 0 0 1 9.487-1.95 8.496 8.496 0 0 1 2.803 1.95 8.608 8.608 0 0 1 2.611 6.219h-.02Zm24.954-9.802-8.517 16.98-8.392-16.98h-1.719v19.564h1.417V23.707l8.477 17.282 8.603-17.118V40.34h1.587V20.775h-1.456Zm-55.766 9.375a6.348 6.348 0 0 0-3.065-2.308 3.876 3.876 0 0 0 1.109-1.17 4.326 4.326 0 0 0 .611-2.393 3.74 3.74 0 0 0-1.313-2.695 4.407 4.407 0 0 0-3.182-1.23 4.33 4.33 0 0 0-3.379 1.664v2.715l.131.111c.61-1.972 1.831-3.024 3.379-3.024a2.491 2.491 0 0 1 1.877.816 2.785 2.785 0 0 1 0 3.852 2.471 2.471 0 0 1-1.877.822h-.978v1.479h1.182a4.992 4.992 0 0 1 3.667 1.617 5.261 5.261 0 0 1 1.569 3.78 5.206 5.206 0 0 1-1.569 3.76 4.966 4.966 0 0 1-3.622 1.597 5.31 5.31 0 0 1-3.484-1.176 6.648 6.648 0 0 1-2.06-3.084v2.722a6.14 6.14 0 0 0 5.499 2.998 6.723 6.723 0 0 0 4.868-2.005 6.17 6.17 0 0 0 2.047-4.49 7.043 7.043 0 0 0-1.41-4.359ZM31.51 0 0 31.51l31.51 31.51 31.51-31.51L31.51 0Zm0 2.036L60.984 31.51 32.151 60.348v-9.246l2.981-2.987v-2.036l-2.981 2.987v-3.598l14.411-14.417-11.538-11.829-10.78 10.804 7.946 7.95 5.703-5.702-4.786-4.781-1.02 1.015 3.765 3.766-3.662 3.662-5.915-5.915 8.74-8.729 9.522 9.76-13.076 13.07-13.18-13.406 13.574-13.593-.986-1.016-14.619 14.6 14.456 14.707v9.123l-2.922-2.923v2.036l2.922 2.923v3.608L2.036 31.51 31.51 2.036Z" fill="#000"/></svg>