<?xml version="1.0" encoding="utf-8"?><svg xmlns="http://www.w3.org/2000/svg" xmlns:xlink="http://www.w3.org/1999/xlink"><symbol viewBox="0 0 32 32" id="svg-instagram" xmlns="http://www.w3.org/2000/svg"><path d="M16 8.32a7.68 7.68 0 1 0 0 15.36 7.68 7.68 0 0 0 0-15.36Zm0 12.8A5.12 5.12 0 1 1 21.12 16 5.136 5.136 0 0 1 16 21.12ZM23.04 0H8.96A8.96 8.96 0 0 0 0 8.96v14.08A8.96 8.96 0 0 0 8.96 32h14.08A8.96 8.96 0 0 0 32 23.04V8.96A8.96 8.96 0 0 0 23.04 0Zm6.4 23.04a6.399 6.399 0 0 1-6.4 6.4H8.96a6.399 6.399 0 0 1-6.4-6.4V8.96a6.4 6.4 0 0 1 6.4-6.4h14.08a6.4 6.4 0 0 1 6.4 6.4v14.08Zm-3.2-15.36a1.92 1.92 0 1 1-3.84 0 1.92 1.92 0 0 1 3.84 0Z"/></symbol></svg>